<?xml version="1.0" encoding="UTF-8" standalone="no"?>
<svg xmlns="http://www.w3.org/2000/svg" version="1.1" viewBox="0 0 256 256">
<path fill="#32363a" stroke="#32363a" d="M 112.69,232.07 Q 109.32,232.11 103.50,231.25 Q 70.37,226.35 43.75,208.00 Q 32.91,200.53 23.19,189.06 Q 13.99,178.20 8.79,164.95 Q 1.35,145.98 4.60,125.77 Q 7.19,109.63 14.45,95.28 A 3.07,3.07 49.7 0 0 14.64,92.96 Q 4.39,60.14 23.44,31.75 Q 24.43,30.28 26.20,30.22 Q 46.20,29.56 63.02,40.28 A 2.53,2.53 46.1 0 0 65.67,40.33 Q 89.17,26.47 114.25,23.27 Q 114.53,23.23 118.76,23.07 Q 120.30,23.02 121.80,22.67 Q 123.60,22.24 124.78,22.23 Q 160.72,22.03 191.46,40.78 A 1.14,1.13 -45.2 0 0 192.66,40.77 Q 210.57,29.48 230.57,30.22 A 2.61,2.60 -15.9 0 1 232.63,31.36 Q 250.77,57.94 243.03,88.86 Q 243.00,88.97 242.06,91.39 Q 241.09,93.86 242.56,96.69 Q 250.55,112.04 252.31,130.35 Q 252.32,130.40 252.86,134.63 Q 253.31,138.10 252.80,141.55 Q 252.01,146.88 251.99,146.99 Q 250.14,163.52 241.06,178.06 Q 232.46,191.83 220.44,201.69 Q 207.06,212.66 194.02,218.79 Q 169.66,230.26 144.75,232.25 Q 143.19,232.37 142.20,232.60 Q 140.39,233.00 139.72,233.00 Q 127.98,233.00 116.25,233.00 Q 114.65,233.00 113.59,232.35 A 1.93,1.32 51.6 0 0 112.69,232.07 ZM 25.29,89.00 Q 15.17,104.82 11.54,123.25 Q 7.67,140.79 13.09,157.84 Q 13.82,160.12 13.76,157.36 Q 13.75,157.02 13.69,156.65 Q 10.97,141.15 15.21,126.00 Q 20.22,110.91 31.06,101.06 Q 42.75,90.45 58.02,84.42 Q 65.48,81.47 75.09,78.94 Q 83.83,76.64 92.72,75.53 A 3.11,3.11 64.0 0 1 95.29,76.42 L 127.67,108.79 A 0.64,0.64 44.7 0 0 128.58,108.79 L 161.30,76.20 A 2.45,2.42 -63.6 0 1 163.30,75.51 Q 185.87,78.23 206.31,88.19 Q 232.12,100.76 241.50,126.54 Q 245.97,143.99 241.81,161.45 Q 241.69,161.94 241.88,161.48 Q 245.99,151.58 246.00,144.75 Q 246.01,138.75 246.25,132.75 Q 246.42,128.49 244.71,123.50 Q 241.36,104.83 230.96,89.00 Q 228.72,84.90 224.56,79.44 Q 199.79,46.91 162.10,34.33 Q 152.33,31.07 142.66,29.78 Q 115.09,26.12 89.56,35.81 Q 48.96,51.24 25.29,89.00 ZM 27.96,36.75 Q 13.18,58.91 19.05,85.49 Q 19.29,86.56 19.87,85.63 Q 28.63,71.47 40.25,60.04 Q 48.45,52.12 57.20,45.79 A 0.79,0.78 42.1 0 0 57.13,44.47 Q 43.83,36.94 28.58,36.32 A 0.59,0.39 11.5 0 0 28.11,36.51 L 27.96,36.75 ZM 216.00,60.04 Q 227.87,71.59 236.57,85.70 Q 237.06,86.49 237.27,85.58 Q 243.34,59.41 228.54,37.00 Q 228.54,36.77 228.44,36.60 A 0.76,0.48 -9.5 0 0 227.79,36.33 Q 212.52,37.09 199.18,44.25 A 0.94,0.94 48.4 0 0 199.09,45.85 Q 208.39,52.40 216.00,60.04 ZM 52.71,94.25 Q 46.31,97.53 40.28,101.80 A 0.68,0.67 50.4 0 0 40.19,102.82 L 64.15,127.14 Q 64.50,127.49 64.53,127.01 L 64.97,118.50 A 0.59,0.56 -89.9 0 1 65.50,117.95 Q 67.76,117.77 72.25,118.50 Q 91.01,121.55 110.10,124.81 A 1.41,1.18 -85.5 0 1 111.08,126.19 L 111.04,130.08 A 1.25,1.16 0.2 0 0 112.29,131.25 L 141.03,131.25 A 1.00,0.98 -89.7 0 0 142.01,130.26 L 142.04,125.81 A 0.62,0.60 -5.2 0 1 142.55,125.22 L 186.43,117.66 Q 188.70,117.27 188.82,119.60 L 189.22,127.51 Q 189.25,128.00 189.61,127.64 L 215.26,101.87 A 0.46,0.46 -51.9 0 0 215.18,101.15 L 204.00,94.29 Q 185.88,85.55 165.36,82.14 A 1.07,1.06 -62.6 0 0 164.43,82.44 L 130.96,115.75 Q 128.51,117.89 125.79,116.25 L 91.79,82.41 A 0.99,0.97 -26.6 0 0 90.94,82.14 Q 70.90,85.31 52.71,94.25 ZM 20.21,133.25 Q 16.48,152.67 24.68,170.56 Q 29.68,181.48 36.81,189.44 Q 52.60,207.06 75.36,216.31 Q 118.48,233.84 163.77,222.32 Q 187.68,216.23 207.08,201.05 Q 216.05,194.04 223.01,185.03 Q 232.35,172.95 235.83,158.07 Q 238.94,144.78 235.79,131.50 Q 232.75,118.00 222.55,107.93 A 0.93,0.93 45.7 0 0 221.26,107.91 L 189.64,137.70 A 2.06,2.02 68.8 0 0 189.00,139.19 L 189.00,153.07 A 0.76,0.76 -86.7 0 1 188.15,153.83 Q 177.28,152.51 166.95,150.51 Q 162.81,149.70 156.97,148.99 Q 151.94,148.38 146.98,147.36 Q 144.73,146.90 142.70,145.62 A 1.23,1.18 -73.7 0 1 142.15,144.56 L 142.25,139.22 A 0.98,0.95 0.6 0 0 141.27,138.25 L 111.92,138.25 A 0.92,0.92 0.3 0 0 111.00,139.17 Q 111.00,140.81 111.40,142.32 Q 112.20,145.40 109.17,146.38 Q 104.47,147.89 99.61,148.55 Q 91.11,149.71 89.96,149.93 Q 78.09,152.16 65.83,153.81 A 0.76,0.72 -4.2 0 1 64.97,153.11 L 64.80,139.68 Q 64.77,137.59 63.38,136.28 L 33.95,108.61 A 0.69,0.69 0.0 0 0 32.97,108.63 Q 22.93,119.27 20.21,133.25 Z"/>
<path fill="#00b9e8" stroke="#00b9e8" d="M 230.96,89.00 Q 230.21,89.03 229.88,88.52 Q 229.38,87.77 229.33,87.71 Q 210.37,69.25 185.32,60.56 Q 172.81,56.23 159.75,53.99 Q 126.82,48.35 94.00,54.47 Q 75.67,57.89 57.94,66.19 Q 39.70,74.72 26.24,88.75 A 0.82,0.81 21.6 0 1 25.65,89.00 L 25.29,89.00 Q 48.96,51.24 89.56,35.81 Q 115.09,26.12 142.66,29.78 Q 152.33,31.07 162.10,34.33 Q 199.79,46.91 224.56,79.44 Q 228.72,84.90 230.96,89.00 Z"/>
<path fill="#00b9e8" stroke="#00b9e8" d="M 40.25,60.04 L 27.96,36.75 L 28.11,36.51 A 0.59,0.39 11.5 0 1 28.58,36.32 Q 43.83,36.94 57.13,44.47 A 0.79,0.78 42.1 0 1 57.20,45.79 Q 48.45,52.12 40.25,60.04 Z"/>
<path fill="#00b9e8" stroke="#00b9e8" d="M 228.54,37.00 Q 221.21,50.06 217.00,59.25 Q 216.61,60.10 216.00,60.04 Q 208.39,52.40 199.09,45.85 A 0.94,0.94 48.4 0 1 199.18,44.25 Q 212.52,37.09 227.79,36.33 A 0.76,0.48 -9.5 0 1 228.44,36.60 Q 228.54,36.77 228.54,37.00 Z"/>
<path fill="#0d6f9e" stroke="#0d6f9e" d="M 27.96,36.75 L 40.25,60.04 Q 28.63,71.47 19.87,85.63 Q 19.29,86.56 19.05,85.49 Q 13.18,58.91 27.96,36.75 Z"/>
<path fill="#0d6f9e" stroke="#0d6f9e" d="M 228.54,37.00 Q 243.34,59.41 237.27,85.58 Q 237.06,86.49 236.57,85.70 Q 227.87,71.59 216.00,60.04 Q 216.61,60.10 217.00,59.25 Q 221.21,50.06 228.54,37.00 Z"/>
<path fill="#0d6f9e" stroke="#0d6f9e" d="M 230.96,89.00 Q 241.36,104.83 244.71,123.50 L 241.50,126.54 Q 232.12,100.76 206.31,88.19 Q 185.87,78.23 163.30,75.51 A 2.45,2.42 -63.6 0 0 161.30,76.20 L 128.58,108.79 A 0.64,0.64 44.7 0 1 127.67,108.79 L 95.29,76.42 A 3.11,3.11 64.0 0 0 92.72,75.53 Q 83.83,76.64 75.09,78.94 Q 65.48,81.47 58.02,84.42 Q 42.75,90.45 31.06,101.06 Q 20.22,110.91 15.21,126.00 Q 13.01,125.15 11.54,123.25 Q 15.17,104.82 25.29,89.00 L 25.65,89.00 A 0.82,0.81 21.6 0 0 26.24,88.75 Q 39.70,74.72 57.94,66.19 Q 75.67,57.89 94.00,54.47 Q 126.82,48.35 159.75,53.99 Q 172.81,56.23 185.32,60.56 Q 210.37,69.25 229.33,87.71 Q 229.38,87.77 229.88,88.52 Q 230.21,89.03 230.96,89.00 Z"/>
<path fill="#fcdfc8" stroke="#fcdfc8" d="M 125.79,116.25 Q 125.55,116.85 125.03,117.10 Q 124.69,117.26 123.98,117.12 Q 122.65,116.87 119.75,116.75 Q 94.98,115.76 70.94,105.06 Q 60.77,100.54 53.10,95.14 A 0.91,0.66 20.2 0 1 52.74,94.60 L 52.71,94.25 Q 70.90,85.31 90.94,82.14 A 0.99,0.97 -26.6 0 1 91.79,82.41 L 125.79,116.25 Z"/>
<path fill="#fcdfc8" stroke="#fcdfc8" d="M 204.00,94.29 Q 202.96,95.56 202.56,95.81 Q 171.14,115.62 133.06,116.81 Q 131.58,116.86 130.96,115.75 L 164.43,82.44 A 1.07,1.06 -62.6 0 1 165.36,82.14 Q 185.88,85.55 204.00,94.29 Z"/>
<path fill="#f4cfb8" stroke="#f4cfb8" d="M 52.71,94.25 L 52.74,94.60 A 0.91,0.66 20.2 0 0 53.10,95.14 Q 60.77,100.54 70.94,105.06 Q 94.98,115.76 119.75,116.75 Q 122.65,116.87 123.98,117.12 Q 124.69,117.26 125.03,117.10 Q 125.55,116.85 125.79,116.25 Q 128.51,117.89 130.96,115.75 Q 131.58,116.86 133.06,116.81 Q 171.14,115.62 202.56,95.81 Q 202.96,95.56 204.00,94.29 L 215.18,101.15 A 0.46,0.46 -51.9 0 1 215.26,101.87 L 189.61,127.64 Q 189.25,128.00 189.22,127.51 L 188.82,119.60 Q 188.70,117.27 186.43,117.66 L 142.55,125.22 A 0.62,0.60 -5.2 0 0 142.04,125.81 L 142.01,130.26 A 1.00,0.98 -89.7 0 1 141.03,131.25 L 112.29,131.25 A 1.25,1.16 0.2 0 1 111.04,130.08 L 111.08,126.19 A 1.41,1.18 -85.5 0 0 110.10,124.81 Q 91.01,121.55 72.25,118.50 Q 67.76,117.77 65.50,117.95 A 0.59,0.56 -89.9 0 0 64.97,118.50 L 64.53,127.01 Q 64.50,127.49 64.15,127.14 L 40.19,102.82 A 0.68,0.67 50.4 0 1 40.28,101.80 Q 46.31,97.53 52.71,94.25 Z"/>
<path fill="#f4cfb8" stroke="#f4cfb8" d="M 235.79,131.50 L 232.91,135.94 A 1.67,0.67 -47.0 0 0 232.57,136.82 Q 232.53,139.35 231.00,141.31 A 1.94,1.27 -1.1 0 1 230.22,141.84 Q 227.78,142.74 226.63,145.10 Q 225.12,148.18 221.73,148.93 Q 219.33,149.45 216.69,151.69 Q 185.00,178.43 142.52,182.17 Q 116.46,184.47 92.25,178.50 Q 56.61,169.71 30.31,143.19 Q 27.45,140.30 21.52,133.92 A 1.56,0.50 7.5 0 0 20.69,133.53 Q 20.41,133.46 20.21,133.25 Q 22.93,119.27 32.97,108.63 A 0.69,0.69 4.0 0 1 33.95,108.61 L 63.38,136.28 Q 64.77,137.59 64.80,139.68 L 64.97,153.11 A 0.76,0.72 -4.2 0 0 65.83,153.81 Q 78.09,152.16 89.96,149.93 Q 91.11,149.71 99.61,148.55 Q 104.47,147.89 109.17,146.38 Q 112.20,145.40 111.40,142.32 Q 111.00,140.81 111.00,139.17 A 0.92,0.92 -0.6 0 1 111.92,138.25 L 141.27,138.25 A 0.98,0.95 0.6 0 1 142.25,139.22 L 142.15,144.56 A 1.23,1.18 -73.7 0 0 142.70,145.62 Q 144.73,146.90 146.98,147.36 Q 151.94,148.38 156.97,148.99 Q 162.81,149.70 166.95,150.51 Q 177.28,152.51 188.15,153.83 A 0.76,0.76 -86.7 0 0 189.00,153.07 L 189.00,139.19 A 2.06,2.02 68.8 0 1 189.64,137.70 L 221.26,107.91 A 0.93,0.93 45.7 0 1 222.55,107.93 Q 232.75,118.00 235.79,131.50 ZM 149.88,158.89 Q 146.08,156.54 142.01,155.46 Q 138.92,154.64 133.59,154.14 Q 121.98,153.05 110.87,156.69 Q 108.81,157.37 107.37,158.21 Q 105.16,159.51 104.50,160.75 Q 102.21,165.09 106.75,166.25 Q 109.02,166.83 115.94,166.37 Q 121.85,165.98 125.08,165.98 Q 135.76,165.98 146.80,166.53 Q 149.29,166.65 151.50,165.49 Q 153.48,164.45 152.53,162.04 Q 151.73,160.03 149.88,158.89 ZM 119.82,172.03 Q 110.96,171.47 102.00,169.70 Q 99.49,169.21 99.50,166.65 Q 99.52,163.72 97.83,160.87 A 1.01,0.99 77.2 0 0 97.07,160.38 Q 91.22,159.80 85.89,162.22 A 1.17,1.15 -4.5 0 0 85.28,162.92 Q 83.98,167.19 87.06,169.69 Q 91.79,173.53 98.17,175.34 Q 101.87,176.40 110.26,177.49 Q 132.79,180.41 155.22,175.83 Q 161.35,174.58 166.87,171.67 Q 171.91,169.02 171.29,163.63 A 2.30,2.13 -88.6 0 0 169.55,161.65 L 160.73,160.00 Q 157.56,159.40 157.50,162.79 Q 157.45,165.61 156.39,168.22 A 1.34,1.29 89.9 0 1 155.74,168.90 Q 153.33,169.98 150.00,170.50 Q 134.40,172.95 119.82,172.03 Z"/>
<path fill="#064866" stroke="#064866" d="M 11.54,123.25 Q 13.01,125.15 15.21,126.00 Q 10.97,141.15 13.69,156.65 Q 13.75,157.02 13.76,157.36 Q 13.82,160.12 13.09,157.84 Q 7.67,140.79 11.54,123.25 Z"/>
<path fill="#064866" stroke="#064866" d="M 244.71,123.50 Q 246.42,128.49 246.25,132.75 Q 246.01,138.75 246.00,144.75 Q 245.99,151.58 241.88,161.48 Q 241.69,161.94 241.81,161.45 Q 245.97,143.99 241.50,126.54 L 244.71,123.50 Z"/>
<path fill="#eabd9d" stroke="#eabd9d" d="M 235.79,131.50 Q 238.94,144.78 235.83,158.07 Q 232.35,172.95 223.01,185.03 Q 216.05,194.04 207.08,201.05 Q 187.68,216.23 163.77,222.32 Q 118.48,233.84 75.36,216.31 Q 52.60,207.06 36.81,189.44 Q 29.68,181.48 24.68,170.56 Q 16.48,152.67 20.21,133.25 Q 20.41,133.46 20.69,133.53 A 1.56,0.50 7.5 0 1 21.52,133.92 Q 27.45,140.30 30.31,143.19 Q 56.61,169.71 92.25,178.50 Q 116.46,184.47 142.52,182.17 Q 185.00,178.43 216.69,151.69 Q 219.33,149.45 221.73,148.93 Q 225.12,148.18 226.63,145.10 Q 227.78,142.74 230.22,141.84 A 1.94,1.27 -1.1 0 0 231.00,141.31 Q 232.53,139.35 232.57,136.82 A 1.67,0.67 -47.0 0 1 232.91,135.94 L 235.79,131.50 Z"/>
<path fill="#fcdfc8" stroke="#fcdfc8" d="M 149.88,158.89 Q 151.73,160.03 152.53,162.04 Q 153.48,164.45 151.50,165.49 Q 149.29,166.65 146.80,166.53 Q 135.76,165.98 125.08,165.98 Q 121.85,165.98 115.94,166.37 Q 109.02,166.83 106.75,166.25 Q 102.21,165.09 104.50,160.75 Q 105.16,159.51 107.37,158.21 Q 108.81,157.37 110.87,156.69 Q 121.98,153.05 133.59,154.14 Q 138.92,154.64 142.01,155.46 Q 146.08,156.54 149.88,158.89 Z"/>
<path fill="#32363a" stroke="#32363a" d="M 119.82,172.03 Q 134.40,172.95 150.00,170.50 Q 153.33,169.98 155.74,168.90 A 1.34,1.29 89.9 0 0 156.39,168.22 Q 157.45,165.61 157.50,162.79 Q 157.56,159.40 160.73,160.00 L 169.55,161.65 A 2.30,2.13 -88.6 0 1 171.29,163.63 Q 171.91,169.02 166.87,171.67 Q 161.35,174.58 155.22,175.83 Q 132.79,180.41 110.26,177.49 Q 101.87,176.40 98.17,175.34 Q 91.79,173.53 87.06,169.69 Q 83.98,167.19 85.28,162.92 A 1.17,1.15 -4.5 0 1 85.89,162.22 Q 91.22,159.80 97.07,160.38 A 1.01,0.99 77.2 0 1 97.83,160.87 Q 99.52,163.72 99.50,166.65 Q 99.49,169.21 102.00,169.70 Q 110.96,171.47 119.82,172.03 Z"/>
</svg>
